<?xml version="1.0" encoding="utf-8"?>
<!-- Generator: Adobe Illustrator 16.0.0, SVG Export Plug-In . SVG Version: 6.00 Build 0)  -->
<!DOCTYPE svg PUBLIC "-//W3C//DTD SVG 1.1//EN" "http://www.w3.org/Graphics/SVG/1.1/DTD/svg11.dtd">
<svg version="1.1" id="Layer_1" xmlns="http://www.w3.org/2000/svg" xmlns:xlink="http://www.w3.org/1999/xlink" x="0px" y="0px"
	 width="512px" height="512px" viewBox="0 0 150 150" enable-background="new 0 0 150 150" xml:space="preserve">
<linearGradient id="SVGID_1_" gradientUnits="userSpaceOnUse" x1="74.4683" y1="5.5562" x2="74.4683" y2="144.7075">
	<stop  offset="0" style="stop-color:#FFFFFF"/>
	<stop  offset="0.1882" style="stop-color:#FFFFFF"/>
	<stop  offset="0.4766" style="stop-color:#EEEFEF"/>
	<stop  offset="0.7425" style="stop-color:#E7E9EA"/>
	<stop  offset="1" style="stop-color:#F4F2F3"/>
</linearGradient>
<linearGradient id="SVGID_2_" gradientUnits="userSpaceOnUse" x1="74.4678" y1="4.083" x2="74.4678" y2="146.1802">
	<stop  offset="0" style="stop-color:#A1B7CB"/>
	<stop  offset="0.0962" style="stop-color:#899FB3"/>
	<stop  offset="0.268" style="stop-color:#6B8297"/>
	<stop  offset="0.4434" style="stop-color:#556E84"/>
	<stop  offset="0.6218" style="stop-color:#446278"/>
	<stop  offset="0.805" style="stop-color:#3A5B71"/>
	<stop  offset="1" style="stop-color:#37596E"/>
</linearGradient>
<path fill="url(#SVGID_1_)" stroke="url(#SVGID_2_)" stroke-width="2.9459" stroke-miterlimit="10" d="M144.271,132.672
	c0,6.647-5.39,12.035-12.036,12.035H16.702c-6.647,0-12.036-5.388-12.036-12.035V17.592c0-6.647,5.389-12.036,12.036-12.036h115.532
	c6.646,0,12.036,5.389,12.036,12.036V132.672z"/>
<g transform="scale(0.2) translate(67,73)">
	<ellipse fill="#303030" cx="306" cy="302.1" rx="294.8" ry="291.1"/>
	<path fill="#FFFFFF" d="M538.2,358.3c0,49.4-40.2,89.5-89.9,89.5H163.7c-49.6,0-89.9-40.1-89.9-89.5v-138
		c0-49.4,40.2-89.5,89.9-89.5h284.6c49.6,0,89.9,40.1,89.9,89.5V358.3z"/>
	<rect x="121.7" y="346.4" fill="#303030" width="361.2" height="25.8"/>
	<rect x="184.4" y="390.6" fill="#303030" width="232.2" height="25.8"/>
</g>
</svg>
